/vscmnt/brussel_pixiu_data/_data_brussel/112/vsc11236/PredSimResults/SUBJ10_Dhondt2024_3seg/weighted-LRposFixed/worker_05.mot
version=1
nRows=4
nColumns=124
inDegrees=yes
endheader
                time	         pelvis_tilt	         pelvis_list	     pelvis_rotation	           pelvis_tx	           pelvis_ty	           pelvis_tz	       hip_flexion_r	     hip_adduction_r	      hip_rotation_r	        knee_angle_r	       ankle_angle_r	    subtalar_angle_r	         mtp_angle_r	       hip_flexion_l	     hip_adduction_l	      hip_rotation_l	        knee_angle_l	       ankle_angle_l	    subtalar_angle_l	         mtp_angle_l	    lumbar_extension	      lumbar_bending	     lumbar_rotation	          arm_flex_r	           arm_add_r	           arm_rot_r	        elbow_flex_r	          arm_flex_l	           arm_add_l	           arm_rot_l	        elbow_flex_l	glut_med1_r/activation	glut_med2_r/activation	glut_med3_r/activation	glut_min1_r/activation	glut_min2_r/activation	glut_min3_r/activation	semimem_r/activation	semiten_r/activation	bifemlh_r/activation	bifemsh_r/activation	    sar_r/activation	add_long_r/activation	add_brev_r/activation	add_mag1_r/activation	add_mag2_r/activation	add_mag3_r/activation	    tfl_r/activation	   pect_r/activation	   grac_r/activation	glut_max1_r/activation	glut_max2_r/activation	glut_max3_r/activation	iliacus_r/activation	  psoas_r/activation	quad_fem_r/activation	    gem_r/activation	   peri_r/activation	rect_fem_r/activation	vas_med_r/activation	vas_int_r/activation	vas_lat_r/activation	med_gas_r/activation	lat_gas_r/activation	 soleus_r/activation	tib_post_r/activation	flex_dig_r/activation	flex_hal_r/activation	tib_ant_r/activation	per_brev_r/activation	per_long_r/activation	per_tert_r/activation	ext_dig_r/activation	ext_hal_r/activation	glut_med1_l/activation	glut_med2_l/activation	glut_med3_l/activation	glut_min1_l/activation	glut_min2_l/activation	glut_min3_l/activation	semimem_l/activation	semiten_l/activation	bifemlh_l/activation	bifemsh_l/activation	    sar_l/activation	add_long_l/activation	add_brev_l/activation	add_mag1_l/activation	add_mag2_l/activation	add_mag3_l/activation	    tfl_l/activation	   pect_l/activation	   grac_l/activation	glut_max1_l/activation	glut_max2_l/activation	glut_max3_l/activation	iliacus_l/activation	  psoas_l/activation	quad_fem_l/activation	    gem_l/activation	   peri_l/activation	rect_fem_l/activation	vas_med_l/activation	vas_int_l/activation	vas_lat_l/activation	med_gas_l/activation	lat_gas_l/activation	 soleus_l/activation	tib_post_l/activation	flex_dig_l/activation	flex_hal_l/activation	tib_ant_l/activation	per_brev_l/activation	per_long_l/activation	per_tert_l/activation	ext_dig_l/activation	ext_hal_l/activation	 ercspn_r/activation	 ercspn_l/activation	 intobl_r/activation	 intobl_l/activation	 extobl_r/activation	 extobl_l/activation	
          0.55531175	         -2.91545113	          0.04897089	         -2.62898744	          0.59973669	          0.81975253	          0.00188342	        -17.07800230	          2.22399122	         10.42911042	         -5.26478582	          6.07943736	         10.59611565	         13.77397044	         29.38704624	          2.75469552	          4.47470724	        -12.83817959	          7.15438568	         -2.38228398	          0.23723994	         -5.37054076	          0.79197182	          1.42688070	         29.87985743	        -13.45124915	         18.09969800	         52.37020551	        -30.87288968	        -14.20858995	          5.57924340	         23.95449115	          0.21216318	          0.09538833	          0.05474944	          0.27370801	          0.22091559	          0.13810597	          0.01177159	          0.01000781	          0.01185062	          0.03131316	          0.09080338	          0.01000014	          0.01000012	          0.01000031	          0.01000135	          0.01000105	          0.33796804	          0.01000046	          0.01000067	          0.01824785	          0.01662809	          0.01007452	          0.21452324	          0.37930074	          0.01664437	          0.01664536	          0.05465709	          0.21736063	          0.01000027	          0.01000035	          0.01000028	          0.33189820	          0.37109908	          0.28185862	          0.24823872	          0.31931507	          0.37932459	          0.01341162	          0.02369434	          0.18045006	          0.01384340	          0.01313855	          0.01367596	          0.02039368	          0.01404223	          0.01000035	          0.01404481	          0.01404434	          0.01000185	          0.09168926	          0.01185259	          0.07263768	          0.01000042	          0.01860165	          0.09860627	          0.16643053	          0.11072579	          0.14321444	          0.10425251	          0.01000018	          0.02135460	          0.06680278	          0.01185103	          0.01185107	          0.06406873	          0.02032969	          0.01969573	          0.01661942	          0.01000058	          0.01000020	          0.01000003	          0.07702300	          0.07843733	          0.06493199	          0.01000462	          0.01000071	          0.01185102	          0.01000017	          0.01000034	          0.01000073	          0.28941528	          0.21739787	          0.12959087	          0.08900103	          0.30097735	          0.02976186	          0.01000000	          0.01404469	          0.01000006	          0.02922800	          0.01000009	          0.09436833	
          0.56641798	         -2.90229189	          0.26740109	         -2.78511798	          0.61456312	          0.81918020	          0.00160958	        -17.08194025	          1.99578083	         10.30614698	         -7.05332209	          5.25306101	         10.94758109	         14.84927099	         28.81676350	          3.18721286	          4.52658920	        -12.77051830	          6.37432689	         -2.51591247	          0.24213823	         -5.19569070	          0.33050200	          1.49416535	         29.92592127	        -13.45018510	         18.12316428	         53.73237754	        -32.14519809	        -14.15901815	          5.56813813	         24.01005643	          0.24969922	          0.08048943	          0.04619801	          0.26451833	          0.18641036	          0.11653492	          0.01000043	          0.01000007	          0.01000005	          0.02642230	          0.07662069	          0.05460646	          0.01000031	          0.01000037	          0.01000080	          0.01000018	          0.28518016	          0.07815028	          0.01186609	          0.01539779	          0.01403106	          0.01000042	          0.18101667	          0.32005699	          0.01404469	          0.01404556	          0.04612009	          0.20044547	          0.01000014	          0.01000015	          0.01000013	          0.28005832	          0.31313640	          0.26267005	          0.23812791	          0.29294984	          0.35778457	          0.01131683	          0.01999354	          0.17726437	          0.01168119	          0.01108642	          0.01153991	          0.01720836	          0.01184915	          0.01000005	          0.01185120	          0.01185106	          0.01000145	          0.07736813	          0.01000133	          0.06129227	          0.01000011	          0.01569636	          0.08684029	          0.14676230	          0.18951705	          0.16284734	          0.09856948	          0.01000225	          0.02747746	          0.05636886	          0.01000011	          0.01000007	          0.05406180	          0.01715437	          0.01664436	          0.14065294	          0.01000032	          0.01000018	          0.01404481	          0.11437889	          0.10355132	          0.09810097	          0.01000000	          0.01000000	          0.00999999	          0.01000000	          0.01000009	          0.01000005	          0.30194232	          0.18449666	          0.11710117	          0.13862792	          0.32628504	          0.03959731	          0.01260969	          0.01185103	          0.02988122	          0.02466282	          0.01000004	          0.07962874	
          0.57752422	         -2.88462113	          0.49509447	         -2.92913528	          0.62965873	          0.81862578	          0.00134202	        -16.97246316	          1.77295699	         10.17642396	         -9.04357439	          4.23350587	         11.29449052	         15.94114956	         28.21341599	          3.60969634	          4.61673336	        -13.26745559	          5.32717722	         -2.62977827	          0.24351607	         -5.00644737	         -0.14526966	          1.55243408	         29.80882939	        -13.45375555	         18.07898249	         55.01227574	        -33.19228520	        -14.09315399	          5.74246131	         23.67549001	          0.21069821	          0.06791762	          0.03898225	          0.22320281	          0.15729455	          0.09833309	          0.01130986	          0.01000083	          0.01000083	          0.02229536	          0.06465318	          0.10043375	          0.03461115	          0.01185043	          0.01035267	          0.01015555	          0.24063730	          0.06594719	          0.01001325	          0.01299289	          0.01183975	          0.01000134	          0.15274331	          0.27006662	          0.01185104	          0.01185180	          0.03891650	          0.16913751	          0.01000358	          0.03013018	          0.02134479	          0.23631542	          0.26422697	          0.22437230	          0.21377488	          0.24719356	          0.30190165	          0.01000000	          0.01687088	          0.18530521	          0.01000003	          0.01000001	          0.01000005	          0.01452056	          0.01000003	          0.01002937	          0.01000016	          0.01000008	          0.01000014	          0.06528386	          0.07681471	          0.05171912	          0.01000041	          0.01324497	          0.07327661	          0.15365210	          0.15992210	          0.13741271	          0.08317387	          0.01000012	          0.02318642	          0.10602487	          0.01000389	          0.04611135	          0.04938367	          0.01447501	          0.01404470	          0.17999692	          0.01888022	          0.01152294	          0.01185114	          0.09651383	          0.08737744	          0.08277839	          0.01612775	          0.01664474	          0.01404477	          0.01356911	          0.01185148	          0.01509792	          0.25478131	          0.17741375	          0.12111407	          0.11697534	          0.34221908	          0.03341254	          0.02598298	          0.01000000	          0.03151557	          0.02081068	          0.01404474	          0.06719136	
          0.58863045	         -2.86431509	          0.74377307	         -3.05788599	          0.64488280	          0.81813281	          0.00109126	        -16.72523715	          1.54924413	         10.02702701	        -11.24918020	          3.00358917	         11.61868404	         16.99390528	         27.55823929	          4.00654163	          4.75768078	        -13.89332794	          4.19286569	         -2.73180717	          0.24267484	         -4.81245349	         -0.64552320	          1.60056085	         29.55533574	        -13.46164516	         18.00549954	         56.17611906	        -33.98796395	        -14.02259422	          6.12778783	         22.95883456	          0.22100664	          0.05730942	          0.03289353	          0.25147970	          0.13272641	          0.08297425	          0.01622075	          0.01000009	          0.01000006	          0.01881301	          0.05455490	          0.12638288	          0.02920533	          0.01000069	          0.01000132	          0.01000096	          0.20305172	          0.05564717	          0.01000022	          0.01096364	          0.01000023	          0.01000024	          0.12888603	          0.22788541	          0.01000005	          0.01000071	          0.03283806	          0.15852631	          0.02746824	          0.02542537	          0.01801146	          0.19940481	          0.22295680	          0.18932711	          0.18038509	          0.20858395	          0.25474705	          0.01000000	          0.04790251	          0.15636206	          0.01000007	          0.01000001	          0.01000006	          0.20477639	          0.22169280	          0.21250420	          0.17036328	          0.01055451	          0.01000027	          0.05508705	          0.06481701	          0.04364108	          0.01404492	          0.01117632	          0.06183142	          0.12965330	          0.13494386	          0.11595190	          0.09907780	          0.01000035	          0.01956520	          0.08946500	          0.17981101	          0.10922557	          0.07455707	          0.01221414	          0.01185106	          0.15188286	          0.01593136	          0.01000011	          0.01000010	          0.08143962	          0.07372993	          0.08057903	          0.01360873	          0.01404497	          0.01185109	          0.01144972	          0.01000038	          0.01273976	          0.38689284	          0.23760161	          0.12307760	          0.49261954	          0.41514381	          0.21948778	          0.05493606	          0.02632736	          0.02659309	          0.01756022	          0.01185107	          0.05669660	
